<?xml version="1.0" standalone="no"?><!DOCTYPE svg PUBLIC "-//W3C//DTD SVG 1.1//EN" "http://www.w3.org/Graphics/SVG/1.1/DTD/svg11.dtd"><svg t="1617266474906" class="icon" viewBox="0 0 1024 1024" version="1.1" xmlns="http://www.w3.org/2000/svg" p-id="4884" xmlns:xlink="http://www.w3.org/1999/xlink" width="200" height="200"><defs><style type="text/css"></style></defs><path d="M848.32 879.14H178.71a72 72 0 0 1-62.36-108l334.81-579.91a72 72 0 0 1 124.71 0l334.81 579.91a72 72 0 0 1-62.36 108z m-628-96h586.44L513.52 275.23z m314-543.91z" fill="#2C77E5" p-id="4885"></path><path d="M463.79 391.86m48 0l0 0q48 0 48 48l0 141.22q0 48-48 48l0 0q-48 0-48-48l0-141.22q0-48 48-48Z" fill="#1AD8E2" p-id="4886"></path><path d="M463.79 656.12m48 0l0 0q48 0 48 48l0 0q0 48-48 48l0 0q-48 0-48-48l0 0q0-48 48-48Z" fill="#1AD8E2" p-id="4887"></path></svg>