<?xml version="1.0" standalone="no"?><!DOCTYPE svg PUBLIC "-//W3C//DTD SVG 1.1//EN" "http://www.w3.org/Graphics/SVG/1.1/DTD/svg11.dtd"><svg t="1617266862223" class="icon" viewBox="0 0 1024 1024" version="1.1" xmlns="http://www.w3.org/2000/svg" p-id="1889" xmlns:xlink="http://www.w3.org/1999/xlink" width="200" height="200"><defs><style type="text/css"></style></defs><path d="M511.448 56.736l18.193 13.705c73.39 55.284 177.911 93.044 310.914 111.548l27.59 3.839V607.59c0 68.038-30.934 132.285-90.684 191.495-57.183 56.665-141.24 109.322-251.71 158.18l-13.618 6.022-13.378-6.538C273.27 846.54 156 730.862 156 607.59V186.96l29.721-2.121c100.029-7.14 203.207-45.789 306.82-115.401l18.907-12.702z m-1.847 78.031l-1.62 1.036c-95.694 60.846-192.162 97.81-287.47 109.878l-0.512 0.063v361.847c0 88.526 95.313 185.201 288.64 282.619l4.83 2.42 4.493-2.048c190.053-87.21 284.231-182.391 286.153-279.942l0.03-3.05V241.215l-2.021-0.33c-118.16-19.468-215.638-54.456-290.466-104.725l-2.057-1.392z m193.932 241.059c13.13 13.114 13.145 34.391 0.03 47.522l-223.662 224c-13.099 13.12-34.351 13.15-47.486 0.068L320.079 535.54a33.595 33.595 0 0 1-8.972-32.54 33.588 33.588 0 0 1 23.814-23.912 33.597 33.597 0 0 1 32.576 8.838l88.558 88.188 199.957-200.253c13.109-13.135 34.386-13.15 47.521-0.035z" p-id="1890"></path></svg>